<svg xmlns="http://www.w3.org/2000/svg" width="326.667" height="64" viewBox="0 0 245 48" preserveAspectRatio="xMidYMid" xmlns:v="https://vecta.io/nano"><path d="M24.062 0C16.375-.006 8.675 1.706 5.189 5.151c-6.973 6.891-6.863 30.623 0 37.648s30.801 6.845 37.664 0 6.863-30.802 0-37.648C39.421 1.728 31.748.006 24.062 0zm6.756 10.636c1.804.014 3.674.415 5.036 1.234 7.227 4.241 6.582 20.523 0 24.877-4.279 2.572-10.87 1.287-10.87-1.795 0-2.521.43-3.273 4.304-3.273h3.787v-7.37-7.361h-3.787c-3.874 0-4.304-.762-4.304-3.283 0-1.996 2.827-3.052 5.834-3.029zm-21.977.228h6.996c6.726 0 6.994.112 6.994 2.801 0 2.521-.43 3.283-4.304 3.283h-3.643v7.361 7.37h3.643c3.874 0 4.304.752 4.304 3.273 0 2.689-.268 2.802-6.994 2.802H8.841V24.309zm72.35-4.759q6.015 0 10.526 2.256 4.561 2.256 7.068 6.466 2.556 4.211 2.556 10.025 0 5.965-2.306 10.226-2.306 4.211-6.516 6.416-4.211 2.206-9.925 2.206H65.752q-.752 0-.752-.752v-1.504q0-.752.752-.752h.351q1.654 0 2.506-1.253.852-1.253.852-3.509V13.875q0-4.762-3.659-4.762h-.05q-.752 0-.752-.752V6.857q0-.752.752-.752zM77.432 36.18q0 1.955.652 3.108.652 1.153 3.058 1.153 5.965 0 9.273-3.709 3.308-3.709 3.308-11.88 0-7.268-3.409-11.479-3.409-4.261-10.526-4.261h-2.356zm39.499-18.196q2.857 0 5.263 1.153 2.456 1.103 4.211 3.058 1.754 1.905 2.707 4.311 1.003 2.356 1.003 4.912 0 3.709-1.754 6.667-1.754 2.907-4.612 4.612-2.857 1.654-6.216 1.654-2.857 0-5.263-1.103-2.406-1.103-4.211-2.957-1.754-1.905-2.757-4.311-.952-2.456-.952-5.113 0-3.659 1.704-6.566 1.704-2.907 4.561-4.612 2.857-1.704 6.316-1.704zm2.155 22.306q.952 0 2.105-.501 1.153-.501 2.005-1.754.902-1.253.902-3.459 0-1.754-.702-3.86-.652-2.155-1.855-4.11-1.153-2.005-2.757-3.258-1.554-1.303-3.409-1.303-2.055 0-3.559 1.554-1.504 1.504-1.504 4.16 0 1.704.652 3.86.702 2.155 1.855 4.16 1.203 1.955 2.807 3.258 1.604 1.253 3.459 1.253zm26.617-22.306q2.857 0 5.263 1.153 2.456 1.103 4.211 3.058 1.754 1.905 2.707 4.311 1.003 2.356 1.003 4.912 0 3.709-1.754 6.667-1.754 2.907-4.612 4.612-2.857 1.654-6.216 1.654-2.857 0-5.263-1.103-2.406-1.103-4.211-2.957-1.754-1.905-2.757-4.311-.952-2.456-.952-5.113 0-3.659 1.704-6.566 1.704-2.907 4.561-4.612 2.857-1.704 6.316-1.704zm2.155 22.306q.952 0 2.105-.501 1.153-.501 2.005-1.754.902-1.253.902-3.459 0-1.754-.702-3.86-.652-2.155-1.855-4.11-1.153-2.005-2.757-3.258-1.554-1.303-3.409-1.303-2.055 0-3.559 1.554-1.504 1.504-1.504 4.16 0 1.704.652 3.86.702 2.155 1.855 4.16 1.203 1.955 2.807 3.258 1.604 1.253 3.459 1.253zm41.905.401q.652 0 .652.752v1.504q0 .752-.752.752h-12.281q-.752 0-.752-.752v-1.554q0-.702.652-.702h.752q.501 0 .902-.201.451-.201.451-.551 0-.351-.401-.752l-6.617-7.168-1.053.952v2.957q0 1.955.15 3.008.201 1.003.752 1.404.602.351 1.805.351.752 0 .752.752v1.504q0 .752-.752.752h-13.384q-.752 0-.752-.752v-1.504q0-.752.752-.752 1.855 0 2.757-1.353.902-1.404.902-3.409V17.133q0-1.353-.201-2.607-.15-1.253-.802-2.105-.602-.902-2.005-1.053-.551-.05-.551-.652V9.013q0-.301.15-.401.201-.15.551-.251 4.01-1.303 6.216-2.607 2.206-1.303 3.208-2.055.15-.1.251-.1h.1q.1 0 .1.1v24.862l6.115-5.564q.401-.401.401-.702 0-.652-1.003-.652h-1.504q-.652 0-.652-.752v-1.504q0-.752.752-.752h11.128q.752 0 .752.752v1.504q0 .752-.652.752h-.602q-1.454 0-2.607.752-1.103.752-3.058 2.506l-3.86 3.459 10.727 10.777q.852.852 1.353 1.203.501.351 1.003.351zm21.153-14.286q-.301.15-.501.15-.351 0-.652-.351-2.256-2.857-4.712-4.01-2.456-1.153-4.261-1.153-1.303 0-2.406.551-1.103.551-1.103 2.005 0 1.103.802 1.855.852.702 2.155 1.153 1.303.451 2.657.802 1.955.451 3.91 1.053 2.005.602 3.659 1.604 1.654.952 2.657 2.406 1.053 1.454 1.053 3.659 0 2.356-1.303 4.211-1.253 1.855-3.609 2.957-2.356 1.053-5.614 1.053-1.554 0-3.058-.401-1.454-.351-2.757-.952-.301-.15-.451-.15-.351 0-.351.351 0 .1.1.401.1.301.1.401 0 .401-.602.401h-1.805q-.551 0-.852-.501l-4.311-8.07q-.15-.301-.15-.451 0-.351.401-.602l1.554-.902q.301-.15.451-.15.301 0 .551.451 2.456 3.659 5.363 5.213 2.957 1.554 6.015 1.554 4.812 0 4.812-2.857 0-1.303-1.203-2.155-1.153-.852-2.907-1.404-1.704-.551-3.459-.952-3.208-.802-5.113-1.805-1.905-1.053-2.857-2.206-.952-1.203-1.303-2.356-.301-1.203-.301-2.306 0-3.008 2.306-4.962 2.306-1.955 6.266-1.955 2.356 0 4.16.652 1.805.602 2.506 1.003.201.1.301.1.15 0 .15-.201 0-.15-.15-.602-.05-.251-.1-.351 0-.15 0-.251 0-.501.652-.501h1.303q.652 0 .852.551l2.506 6.366q.15.301.15.501 0 .351-.401.551zm30.526 8.02q0 1.805.551 3.258.551 1.404 2.406 1.654.602.05.602.652v1.654q0 .702-.752.702-2.456 0-4.11.301-1.604.251-2.807.702-1.153.401-2.306.902-.201.1-.351.1h-.15q-.1 0-.1-.201 0-.201.1-.952.1-.802.201-1.754.15-1.003.251-1.704-.251.652-1.103 1.754-.802 1.103-2.406 2.005-1.554.852-4.11.852-1.704 0-3.659-.702-1.905-.702-3.609-2.256-1.704-1.554-2.807-4.06-1.053-2.556-1.053-6.216 0-4.662 1.654-7.519 1.704-2.907 4.361-4.261 2.707-1.353 5.714-1.353 2.456 0 4.511.752 2.055.752 3.609 2.155 1.303-.551 2.206-1.003.952-.501 1.604-1.003.251-.201.501-.401.301-.201.652-.401.15-.1.251-.1h.05q.1 0 .1.1zm-7.018-7.87q-.15-1.003-.752-2.206-.551-1.253-1.704-2.105-1.153-.902-3.108-.902-2.406 0-3.759 1.203-1.353 1.153-1.905 3.008-.501 1.855-.501 3.96 0 4.812 1.905 7.619 1.955 2.807 5.013 2.807 1.805 0 2.807-.752 1.053-.802 1.504-1.604.451-.802.501-.952z"/></svg>